<?xml version="1.0" encoding="UTF-8" standalone="no"?>
<!-- Created with Inkscape (http://www.inkscape.org/) -->

<svg
   xmlns:dc="http://purl.org/dc/elements/1.1/"
   xmlns:cc="http://creativecommons.org/ns#"
   xmlns:rdf="http://www.w3.org/1999/02/22-rdf-syntax-ns#"
   xmlns:svg="http://www.w3.org/2000/svg"
   xmlns="http://www.w3.org/2000/svg"
   xmlns:sodipodi="http://sodipodi.sourceforge.net/DTD/sodipodi-0.dtd"
   xmlns:inkscape="http://www.inkscape.org/namespaces/inkscape"
   width="210mm"
   height="297mm"
   viewBox="0 0 210 297"
   version="1.1"
   id="svg8"
   inkscape:version="0.92.4 (5da689c313, 2019-01-14)"
   sodipodi:docname="mycielski_construction.svg">
  <defs
     id="defs2" />
  <sodipodi:namedview
     id="base"
     pagecolor="#ffffff"
     bordercolor="#666666"
     borderopacity="1.0"
     inkscape:pageopacity="0.0"
     inkscape:pageshadow="2"
     inkscape:zoom="1.4"
     inkscape:cx="225.59112"
     inkscape:cy="607.54896"
     inkscape:document-units="mm"
     inkscape:current-layer="layer1"
     showgrid="false"
     inkscape:window-width="1916"
     inkscape:window-height="1037"
     inkscape:window-x="0"
     inkscape:window-y="41"
     inkscape:window-maximized="0" />
  <metadata
     id="metadata5">
    <rdf:RDF>
      <cc:Work
         rdf:about="">
        <dc:format>image/svg+xml</dc:format>
        <dc:type
           rdf:resource="http://purl.org/dc/dcmitype/StillImage" />
        <dc:title></dc:title>
      </cc:Work>
    </rdf:RDF>
  </metadata>
  <g
     inkscape:label="Layer 1"
     inkscape:groupmode="layer"
     id="layer1">
    <circle
       style="fill:#ffffff;fill-opacity:1;stroke:#000500;stroke-width:0.1;stroke-miterlimit:4;stroke-dasharray:none;stroke-opacity:1"
       id="path815"
       cx="35.814117"
       cy="133.16377"
       r="4.4099469" />
    <circle
       style="fill:#ffffff;fill-opacity:1;stroke:#000500;stroke-width:0.1;stroke-miterlimit:4;stroke-dasharray:none;stroke-opacity:1"
       id="path815-3"
       cx="42.495857"
       cy="158.55438"
       r="4.4099469" />
    <circle
       style="fill:#ff0000;fill-opacity:1;stroke:#000500;stroke-width:0.1;stroke-miterlimit:4;stroke-dasharray:none;stroke-opacity:1"
       id="path815-6"
       cx="57.195683"
       cy="115.65763"
       r="4.4099469" />
    <circle
       style="fill:#ffffff;fill-opacity:1;stroke:#000500;stroke-width:0.1;stroke-miterlimit:4;stroke-dasharray:none;stroke-opacity:1"
       id="path815-7"
       cx="77.508163"
       cy="132.49561"
       r="4.4099469" />
    <circle
       style="fill:#ffffff;fill-opacity:1;stroke:#000500;stroke-width:0.1;stroke-miterlimit:4;stroke-dasharray:none;stroke-opacity:1"
       id="path815-5"
       cx="72.563675"
       cy="157.0844"
       r="4.4099469" />
    <circle
       style="fill:#ffffff;fill-opacity:1;stroke:#000500;stroke-width:0.1;stroke-miterlimit:4;stroke-dasharray:none;stroke-opacity:1"
       id="path815-35"
       cx="13.630746"
       cy="129.55565"
       r="4.4099469" />
    <circle
       style="fill:#ffffff;fill-opacity:1;stroke:#000500;stroke-width:0.1;stroke-miterlimit:4;stroke-dasharray:none;stroke-opacity:1"
       id="path815-62"
       cx="25.52424"
       cy="175.526"
       r="4.4099469" />
    <circle
       style="fill:#ffffff;fill-opacity:1;stroke:#000500;stroke-width:0.1;stroke-miterlimit:4;stroke-dasharray:none;stroke-opacity:1"
       id="path815-9"
       cx="87.263504"
       cy="179.13414"
       r="4.4099469" />
    <circle
       style="fill:#ffffff;fill-opacity:1;stroke:#000500;stroke-width:0.1;stroke-miterlimit:4;stroke-dasharray:none;stroke-opacity:1"
       id="path815-1"
       cx="100.35971"
       cy="130.22382"
       r="4.4099469" />
    <circle
       style="fill:#ffffff;fill-opacity:1;stroke:#000500;stroke-width:0.1;stroke-miterlimit:4;stroke-dasharray:none;stroke-opacity:1"
       id="path815-2"
       cx="58.486168"
       cy="100.98466"
       r="4.4099469" />
    <circle
       style="fill:#ffffff;fill-opacity:1;stroke:#000500;stroke-width:0.1;stroke-miterlimit:4;stroke-dasharray:none;stroke-opacity:1"
       id="path815-70"
       cx="59.053135"
       cy="82.806404"
       r="4.4099469" />
    <path
       style="fill:none;stroke:#000000;stroke-width:0.26458332px;stroke-linecap:butt;stroke-linejoin:miter;stroke-opacity:1"
       d="m 63.31101,86.372768 c 0.313933,0.0474 -0.08749,4.441219 0,4.441219 0.844711,0 1.808205,-2.935724 2.55134,-3.307292 0.817644,-0.408821 1.251312,2.339462 1.322917,2.267858 0.983109,-0.98311 1.571738,-2.80206 2.834822,-3.307292"
       id="path918"
       inkscape:connector-curvature="0" />
    <path
       style="fill:none;stroke:#000000;stroke-width:0.26458332px;stroke-linecap:butt;stroke-linejoin:miter;stroke-opacity:1"
       d="m 63.499999,103.33445 c 0.395817,-0.50376 0.845775,-0.70871 1.464657,-0.70871 0.304667,0 0.623945,0.01 0.803201,0.18899 0.128055,0.12806 -0.888767,3.74498 0.897694,1.51191 0.27818,-0.34773 0.623961,-0.8992 0.708705,-1.32292 0.0073,-0.0366 0.13218,-0.8032 0.14174,-0.8032 0.254198,0 -0.373692,1.66221 0.09449,2.59858"
       id="path926"
       inkscape:connector-curvature="0" />
    <path
       style="fill:none;stroke:#000000;stroke-width:0.26458332px;stroke-linecap:butt;stroke-linejoin:miter;stroke-opacity:1"
       d="m 61.846353,118.64248 c 0.446088,4.48584 1.120003,1.82971 2.315105,0.23624"
       id="path928"
       inkscape:connector-curvature="0" />
    <path
       style="fill:none;stroke:#000000;stroke-width:0.26458332px;stroke-linecap:butt;stroke-linejoin:miter;stroke-opacity:1"
       d="m 82.068079,135.79315 c -0.210111,4.97424 1.196782,2.01602 2.645833,0.56697"
       id="path930"
       inkscape:connector-curvature="0" />
    <path
       style="fill:none;stroke:#000000;stroke-width:0.26458332px;stroke-linecap:butt;stroke-linejoin:miter;stroke-opacity:1"
       d="m 41.199405,134.51748 c 1.033106,3.93081 0.604295,2.38656 2.551338,-0.0472"
       id="path932"
       inkscape:connector-curvature="0" />
    <path
       style="fill:none;stroke:#000000;stroke-width:0.26458332px;stroke-linecap:butt;stroke-linejoin:miter;stroke-opacity:1"
       d="m 47.306594,158.82997 c 1.033106,3.93081 0.604295,2.38656 2.551338,-0.0472"
       id="path932-9"
       inkscape:connector-curvature="0" />
    <path
       style="fill:none;stroke:#000000;stroke-width:0.26458332px;stroke-linecap:butt;stroke-linejoin:miter;stroke-opacity:1"
       d="m 78.253395,157.97952 c 1.033106,3.93081 0.604295,2.38656 2.551338,-0.0472"
       id="path932-3"
       inkscape:connector-curvature="0" />
    <path
       style="fill:none;stroke:#000000;stroke-width:0.26458332px;stroke-linecap:butt;stroke-linejoin:miter;stroke-opacity:1"
       d="m 17.261638,128.27181 c 0.395817,-0.50376 0.845775,-0.70871 1.464657,-0.70871 0.304667,0 0.623945,0.01 0.803201,0.18899 0.128055,0.12806 -0.888767,3.74498 0.897694,1.51191 0.27818,-0.34773 0.623961,-0.8992 0.708705,-1.32292 0.0073,-0.0366 0.13218,-0.8032 0.14174,-0.8032 0.254198,0 -0.373692,1.66221 0.09449,2.59858"
       id="path926-6"
       inkscape:connector-curvature="0" />
    <path
       style="fill:none;stroke:#000000;stroke-width:0.26458332px;stroke-linecap:butt;stroke-linejoin:miter;stroke-opacity:1"
       d="m 27.750477,180.8105 c 0.395817,-0.50376 0.845775,-0.70871 1.464657,-0.70871 0.304667,0 0.623945,0.01 0.803201,0.18899 0.128055,0.12806 -0.888767,3.74498 0.897694,1.51191 0.27818,-0.34773 0.623961,-0.8992 0.708705,-1.32292 0.0073,-0.0366 0.13218,-0.8032 0.14174,-0.8032 0.254198,0 -0.373692,1.66221 0.09449,2.59858"
       id="path926-0"
       inkscape:connector-curvature="0" />
    <path
       style="fill:none;stroke:#000000;stroke-width:0.26458332px;stroke-linecap:butt;stroke-linejoin:miter;stroke-opacity:1"
       d="m 90.636266,182.36965 c 0.395817,-0.50376 0.845775,-0.70871 1.464657,-0.70871 0.304667,0 0.623945,0.01 0.803201,0.18899 0.128055,0.12806 -0.888767,3.74498 0.897694,1.51191 0.27818,-0.34773 0.623961,-0.8992 0.708705,-1.32292 0.0073,-0.0366 0.13218,-0.8032 0.14174,-0.8032 0.254198,0 -0.373692,1.66221 0.09449,2.59858"
       id="path926-62"
       inkscape:connector-curvature="0" />
    <path
       style="fill:none;stroke:#000000;stroke-width:0.26458332px;stroke-linecap:butt;stroke-linejoin:miter;stroke-opacity:1"
       d="m 104.3379,134.83914 c 0.39582,-0.50376 0.84578,-0.70871 1.46466,-0.70871 0.30467,0 0.62394,0.01 0.8032,0.18899 0.12806,0.12806 -0.88877,3.74498 0.89769,1.51191 0.27818,-0.34773 0.62397,-0.8992 0.70871,-1.32292 0.007,-0.0366 0.13218,-0.8032 0.14174,-0.8032 0.2542,0 -0.37369,1.66221 0.0945,2.59858"
       id="path926-61"
       inkscape:connector-curvature="0" />
    <path
       style="fill:none;stroke:#000000;stroke-width:0.26458332px;stroke-linecap:butt;stroke-linejoin:miter;stroke-opacity:1"
       d="m 42.711309,137.49405 c 1.355026,-1.95576 0.708705,0.0704 0.708705,1.13393"
       id="path988"
       inkscape:connector-curvature="0" />
    <path
       style="fill:none;stroke:#000000;stroke-width:0.26458332px;stroke-linecap:butt;stroke-linejoin:miter;stroke-opacity:1"
       d="m 63.688988,121.19382 c 0.793952,-0.56886 2.377599,-0.31398 1.74814,0.94494 -0.168828,0.33766 -1.559153,0.7581 -1.559153,0.8977 0,0.12599 0.251984,0 0.377976,0 0.609108,0 1.194363,0.0404 1.700892,0.14174"
       id="path990"
       inkscape:connector-curvature="0" />
    <path
       style="fill:none;stroke:#000000;stroke-width:0.26458332px;stroke-linecap:butt;stroke-linejoin:miter;stroke-opacity:1"
       d="m 84.28869,137.87202 c 0.345588,0.008 0.725776,0.0794 1.039434,0.23624 1.336561,0.66828 -0.697638,0.88662 -0.803198,0.99218 -0.19126,0.19126 1.881245,1.41885 0.188986,1.7009"
       id="path992"
       inkscape:connector-curvature="0" />
    <path
       style="fill:none;stroke:#000000;stroke-width:0.26458332px;stroke-linecap:butt;stroke-linejoin:miter;stroke-opacity:1"
       d="m 80.839656,160.03088 c -1.758043,1.57845 0.320484,1.55915 1.417412,1.55915"
       id="path994"
       inkscape:connector-curvature="0" />
    <path
       style="fill:none;stroke:#000000;stroke-width:0.26458332px;stroke-linecap:butt;stroke-linejoin:miter;stroke-opacity:1"
       d="m 81.548363,160.83408 c -0.104198,0.9345 -0.314034,1.71191 -0.472472,2.50409"
       id="path996"
       inkscape:connector-curvature="0" />
    <path
       style="fill:none;stroke:#000000;stroke-width:0.26458332px;stroke-linecap:butt;stroke-linejoin:miter;stroke-opacity:1"
       d="m 49.467634,160.83408 c -0.06075,0.0877 -0.250888,1.37016 -0.330729,1.37016 -0.276312,0 1.77119,-0.9657 1.511904,0.33073 -0.202428,1.01214 -0.984277,1.03943 -1.937129,1.03943"
       id="path998"
       inkscape:connector-curvature="0" />
    <path
       style="fill:none;stroke:#000000;stroke-width:0.26458332px;stroke-linecap:butt;stroke-linejoin:miter;stroke-opacity:1"
       d="m 49.467634,160.83408 c 0.494676,0.2634 0.975802,0.2208 1.322917,0.0472"
       id="path1000"
       inkscape:connector-curvature="0" />
    <path
       style="fill:none;stroke:#000000;stroke-width:0.26458332px;stroke-linecap:butt;stroke-linejoin:miter;stroke-opacity:1"
       d="m 21.308407,130.69048 c 1.703335,-1.64772 1.758295,-0.58728 0.850447,1.22842"
       id="path1004"
       inkscape:connector-curvature="0" />
    <path
       style="fill:none;stroke:#000000;stroke-width:0.26458332px;stroke-linecap:butt;stroke-linejoin:miter;stroke-opacity:1"
       d="m 68.791666,104.0904 c 0.588306,0.21716 1.241967,0.6209 0.755951,1.22842 -0.483417,0.60427 -1.222396,0.94193 -1.889879,1.27567 -0.0058,0.003 -0.322447,0.10278 -0.283482,0.14174 0.352732,0.35274 1.577999,0.16377 2.078868,0.33073"
       id="path1006"
       inkscape:connector-curvature="0" />
    <path
       style="fill:none;stroke:#000000;stroke-width:0.26458332px;stroke-linecap:butt;stroke-linejoin:miter;stroke-opacity:1"
       d="m 109.5186,136.21838 c 0.94205,-0.10666 1.79044,0.19888 1.27567,1.22842 -0.36132,0.72263 -1.97458,0.76575 -1.93713,0.8032 0.1731,0.1731 0.67554,0.13538 0.8977,0.28348 1.14275,0.76184 -0.44187,0.55166 -0.94495,0.8032"
       id="path1012"
       inkscape:connector-curvature="0" />
    <path
       style="fill:none;stroke:#000000;stroke-width:0.26458332px;stroke-linecap:butt;stroke-linejoin:miter;stroke-opacity:1"
       d="m 96.478422,182.94568 c -2.192708,1.47952 0.287272,1.65365 1.559153,1.65365"
       id="path1016"
       inkscape:connector-curvature="0" />
    <path
       style="fill:none;stroke:#000000;stroke-width:0.26458332px;stroke-linecap:butt;stroke-linejoin:miter;stroke-opacity:1"
       d="m 97.28162,183.84337 c -0.125621,0.50452 -0.222744,1.04622 -0.377975,1.51191"
       id="path1020"
       inkscape:connector-curvature="0" />
    <path
       style="fill:none;stroke:#000000;stroke-width:0.26458332px;stroke-linecap:butt;stroke-linejoin:miter;stroke-opacity:1"
       d="m 32.222469,183.93786 c 0.43281,0 2.99584,-0.36513 1.842635,-1.13393 -0.239123,-0.1594 -1.025321,0.1559 -1.086681,0.0945 -0.181248,-0.18124 0.440685,-1.15143 0.236233,-1.41741 0.408516,-0.0399 0.810474,-0.0472 1.228424,-0.0472"
       id="path1024"
       inkscape:connector-curvature="0" />
    <path
       style="fill:none;stroke:#000000;stroke-width:0.26458332px;stroke-linecap:butt;stroke-linejoin:miter;stroke-opacity:1"
       d="m 41.671874,154.125 c -2.997975,-5.20022 -2.8781,-12.0873 -5.291666,-16.91444"
       id="path1030"
       inkscape:connector-curvature="0" />
    <path
       style="fill:none;stroke:#000000;stroke-width:0.26458332px;stroke-linecap:butt;stroke-linejoin:miter;stroke-opacity:1"
       d="m 46.491072,156.58184 c 6.860093,0.26807 15.120276,-0.0945 21.355653,-0.0945"
       id="path1034"
       inkscape:connector-curvature="0" />
    <path
       style="fill:none;stroke:#000000;stroke-width:0.26458332px;stroke-linecap:butt;stroke-linejoin:miter;stroke-opacity:1"
       d="m 73.138392,152.80208 c 1.072652,-5.02604 0.423854,-12.04388 1.889881,-16.44196"
       id="path1036"
       inkscape:connector-curvature="0" />
    <path
       style="fill:none;stroke:#000000;stroke-width:0.26458332px;stroke-linecap:butt;stroke-linejoin:miter;stroke-opacity:1"
       d="m 75.878718,128.32812 c -4.7704,-3.45199 -8.373012,-10.93502 -14.174105,-12.09523"
       id="path1038"
       inkscape:connector-curvature="0" />
    <path
       style="fill:none;stroke:#000000;stroke-width:0.26458332px;stroke-linecap:butt;stroke-linejoin:miter;stroke-opacity:1"
       d="m 52.916666,117.36681 c -1.303052,0.54748 -2.473232,1.24765 -3.685267,1.98438 -5.261462,3.19814 -6.847555,7.45077 -10.394347,10.11086"
       id="path1040"
       inkscape:connector-curvature="0" />
    <path
       style="fill:none;stroke:#000000;stroke-width:0.26458332px;stroke-linecap:butt;stroke-linejoin:miter;stroke-opacity:1"
       d="m 16.252976,133.14732 c 1.754935,1.47782 3.34706,3.17247 5.197173,4.53571 4.78492,3.52573 9.250905,7.73901 13.418153,11.90625 1.838113,1.83812 2.951147,4.74108 4.441222,5.85863"
       id="path1042"
       inkscape:connector-curvature="0" />
    <path
       style="fill:none;stroke:#000000;stroke-width:0.26458332px;stroke-linecap:butt;stroke-linejoin:miter;stroke-opacity:1"
       d="m 16.252976,125.96577 c 2.761061,-0.75969 5.28933,-2.12265 8.031994,-2.92931 3.324404,-0.97777 6.982117,-2.08519 10.110863,-3.02381 3.431154,-1.02935 7.518873,-0.71091 10.772322,-1.79539 2.858387,-0.9528 5.714511,-3.59077 8.504463,-3.59077"
       id="path1044"
       inkscape:connector-curvature="0" />
    <path
       style="fill:none;stroke:#000000;stroke-width:0.26458332px;stroke-linecap:butt;stroke-linejoin:miter;stroke-opacity:1"
       d="m 26.552826,171.03943 c 0.155591,-2.68638 0.55548,-5.49013 0.944941,-8.12649 0.255548,-1.72985 3.697468,-24.26974 5.197173,-26.26934"
       id="path1046"
       inkscape:connector-curvature="0" />
    <path
       style="fill:none;stroke:#000000;stroke-width:0.26458332px;stroke-linecap:butt;stroke-linejoin:miter;stroke-opacity:1"
       d="m 29.671131,173.49628 c 2.221831,-1.32367 4.719614,-2.01623 7.181546,-2.74033 2.697938,-0.79351 5.502688,-1.02132 8.220982,-1.70089 1.874311,-0.46858 3.805833,-1.6846 5.669643,-2.36236 1.536152,-0.55859 3.233348,-0.63187 4.724704,-1.22842 1.414849,-0.56594 2.504252,-1.68071 3.874254,-2.26785 3.228075,-1.38346 6.782625,-2.82435 9.449406,-4.15774"
       id="path1048"
       inkscape:connector-curvature="0" />
    <path
       style="fill:none;stroke:#000000;stroke-width:0.26458332px;stroke-linecap:butt;stroke-linejoin:miter;stroke-opacity:1"
       d="m 97.801339,133.61979 c -1.908942,1.97191 -3.905345,3.92008 -5.669643,6.04762 -1.761458,2.12411 -3.057834,4.66423 -5.008186,6.61458 -3.384122,3.38412 -9.177483,4.55113 -11.717261,7.9375"
       id="path1052"
       inkscape:connector-curvature="0" />
    <path
       style="fill:none;stroke:#000000;stroke-width:0.26458332px;stroke-linecap:butt;stroke-linejoin:miter;stroke-opacity:1"
       d="m 54.334076,102.81473 c -1.914253,1.26624 -3.63116,3.15132 -5.291667,4.63021 -7.52847,6.70505 -11.433876,12.37921 -13.229166,21.35565"
       id="path1054"
       inkscape:connector-curvature="0" />
    <path
       style="fill:none;stroke:#000000;stroke-width:0.25367537px;stroke-linecap:butt;stroke-linejoin:miter;stroke-opacity:1"
       d="m 77.963337,128.04749 c -0.744754,-1.7607 -1.761586,-3.40712 -2.568984,-5.09612 -1.739429,-3.63875 -3.999609,-7.2411 -6.732506,-10.0996 -2.59016,-2.70919 -5.932645,-4.99804 -7.52978,-8.33911"
       id="path1064"
       inkscape:connector-curvature="0" />
    <path
       style="fill:none;stroke:#000000;stroke-width:0.26458332px;stroke-linecap:butt;stroke-linejoin:miter;stroke-opacity:1"
       d="m 61.326635,113.96503 c 8.892098,1.25834 16.876149,4.95128 24.94643,8.40997 3.915203,1.67794 7.327275,2.60257 10.016368,5.29166"
       id="path1066"
       inkscape:connector-curvature="0" />
    <path
       style="fill:none;stroke:#000000;stroke-width:0.26458332px;stroke-linecap:butt;stroke-linejoin:miter;stroke-opacity:1"
       d="M 82.776784,179.16592 C 67.633368,179.2248 54.864632,169.97269 44.317708,162.0625"
       id="path1068"
       inkscape:connector-curvature="0" />
    <path
       style="fill:none;stroke:#000000;stroke-width:0.26458332px;stroke-linecap:butt;stroke-linejoin:miter;stroke-opacity:1"
       d="m 79.469492,136.26562 c 2.284193,6.9162 7.540583,12.69987 9.827382,19.56027 0.555397,1.6662 0.295987,4.1883 0.472469,5.95313 0.518343,5.18342 1.109533,9.47689 0.188989,14.07961"
       id="path1072"
       inkscape:connector-curvature="0" />
    <path
       style="fill:none;stroke:#000000;stroke-width:0.26458332px;stroke-linecap:butt;stroke-linejoin:miter;stroke-opacity:1"
       d="m 14.432554,125.14569 c 1.40756,-5.61916 6.177644,-9.60045 9.888973,-13.76438 3.481,-3.90551 6.695394,-8.48719 10.557147,-12.027126 1.375426,-1.260809 2.939645,-2.237296 4.34313,-3.608139 1.731385,-1.691121 3.29389,-3.786902 5.211754,-5.278575 2.037758,-1.58492 8.436398,-5.723049 10.557148,-6.147197"
       id="path1076"
       inkscape:connector-curvature="0" />
    <path
       style="fill:none;stroke:#000000;stroke-width:0.26458332px;stroke-linecap:butt;stroke-linejoin:miter;stroke-opacity:1"
       d="m 58.866113,86.992967 c -1.173535,3.627236 0,6.50399 0,9.888974"
       id="path1078"
       inkscape:connector-curvature="0" />
    <path
       style="fill:none;stroke:#000000;stroke-width:0.26458332px;stroke-linecap:butt;stroke-linejoin:miter;stroke-opacity:1"
       d="M 98.488819,125.81387 C 96.540176,119.47615 90.122075,115.22758 87.263501,109.51042 83.76292,102.50926 70.939535,81.447126 62.674703,81.447126"
       id="path1084"
       inkscape:connector-curvature="0" />
    <path
       style="fill:none;stroke:#000000;stroke-width:0.26458332px;stroke-linecap:butt;stroke-linejoin:miter;stroke-opacity:1"
       d="m 62.674703,81.447126 c 2.710767,-2.870192 10.140971,-1.731584 14.054463,-1.405462 5.81016,0.484183 12.475186,1.371643 17.197916,4.913691 10.676438,8.007329 24.954328,41.341015 22.489588,56.129465 -1.12235,6.73408 -3.91286,11.6241 -7.37054,17.38691 -1.22695,2.0449 -17.450403,18.52083 -17.575892,18.52083 -0.629962,0 -0.977701,-0.80005 -1.511908,-1.13393"
       id="path1086"
       inkscape:connector-curvature="0" />
    <path
       style="fill:none;stroke:#000000;stroke-width:0.26458332px;stroke-linecap:butt;stroke-linejoin:miter;stroke-opacity:1"
       d="M 21.922619,172.07887 C 19.252386,166.2599 14.59277,161.62634 11.339286,156.20387 6.0006708,147.30618 0.24095391,121.13714 5.1026784,111.41369 9.9939027,101.63124 21.607718,94.110727 30.805059,87.979164 c 1.445545,-0.963697 23.034717,-9.268634 23.623513,-6.80357 0.247383,1.035707 0.374756,2.096453 0.562134,3.144679"
       id="path1092"
       inkscape:connector-curvature="0" />
    <path
       style="fill:#ff0000;fill-opacity:1;stroke:#000500;stroke-width:0.26996624;stroke-miterlimit:4;stroke-dasharray:none;stroke-opacity:1"
       d="m 153.52309,613.51709 c -14.5221,-7.23666 -10.37001,-28.7698 5.79772,-30.06759 8.78553,-0.70522 15.67173,4.7111 17.28471,13.59524 1.11492,6.14085 -4.42721,16.32414 -8.22773,15.11791 -1.23466,-0.39187 -1.48323,-0.26257 -1.15243,0.59948 0.29551,0.77011 -0.23858,1.32932 -1.78426,1.86814 -3.70917,1.29303 -7.8691,0.90448 -11.91801,-1.11318 z"
       id="path1113"
       inkscape:connector-curvature="0"
       transform="scale(0.26458333)" />
    <path
       style="fill:#ff0000;fill-opacity:1;stroke:#000500;stroke-width:0.26996624;stroke-miterlimit:4;stroke-dasharray:none;stroke-opacity:1"
       d="m 91.868398,678.87184 c -3.772168,-1.05912 -8.786027,-5.7268 -10.239417,-9.53245 -2.722187,-7.12794 -0.140911,-15.24868 6.175684,-19.4288 3.792581,-2.50981 10.010439,-3.07711 14.583685,-1.33057 4.00074,1.5279 8.43106,6.4609 9.62169,10.7134 3.27282,11.68938 -8.27175,22.91113 -20.141642,19.57842 z"
       id="path1115"
       inkscape:connector-curvature="0"
       transform="scale(0.26458333)" />
    <path
       style="fill:#000080;fill-opacity:1;stroke:#000500;stroke-width:0.26996624;stroke-miterlimit:4;stroke-dasharray:none;stroke-opacity:1"
       d="m 371.92268,506.26113 c -11.55936,-6.01962 -11.38744,-22.50511 0.2954,-28.32692 10.78391,-5.37385 22.95134,2.18107 22.95134,14.2508 0,12.24648 -12.37322,19.73858 -23.24674,14.07612 z"
       id="path1117"
       inkscape:connector-curvature="0"
       transform="scale(0.26458333)" />
    <path
       style="fill:#ff0000;fill-opacity:1;stroke:#000500;stroke-width:0.26996624;stroke-miterlimit:4;stroke-dasharray:none;stroke-opacity:1"
       d="m 214.11016,396.16814 c -5.61502,-3.053 -9.2421,-8.97943 -9.21366,-15.05456 0.0137,-2.91756 2.25172,-8.20502 4.48895,-10.60522 3.05184,-3.27417 11.15153,-6.21598 12.24465,-4.44727 0.26856,0.43454 0.80837,0.59226 1.19958,0.35049 2.75309,-1.70151 10.5311,3.50131 12.84277,8.59071 3.04444,6.70265 0.48204,15.76453 -5.66206,20.02384 -2.61364,1.81186 -3.85907,2.16555 -8.21429,2.33273 -3.99975,0.15354 -5.69728,-0.10944 -7.68594,-1.19072 z"
       id="path1119"
       inkscape:connector-curvature="0"
       transform="scale(0.26458333)" />
    <path
       style="fill:#000080;fill-opacity:1;stroke:#000500;stroke-width:0.26996624;stroke-miterlimit:4;stroke-dasharray:none;stroke-opacity:1"
       d="m 216.56269,327.5778 c -1.59018,-0.71194 -3.98462,-2.59679 -5.32099,-4.18856 -1.97846,-2.35657 -2.57506,-3.86013 -3.21205,-8.09509 -1.00414,-6.67589 -0.2418,-9.26198 3.97547,-13.48605 6.71595,-6.72678 15.63957,-6.68999 22.43007,0.0925 2.87358,2.87018 3.33392,3.66716 2.61708,4.53091 -0.99869,1.20335 -0.42997,2.53926 1.081,2.53926 0.76877,0 1.02927,0.97366 1.02927,3.847 0,5.51444 -2.88817,10.8058 -7.4312,13.61454 -4.32857,2.67615 -10.67877,3.15571 -15.16865,1.14553 z"
       id="path1123"
       inkscape:connector-curvature="0"
       transform="scale(0.26458333)" />
    <path
       style="fill:#000080;fill-opacity:1;stroke:#000500;stroke-width:0.26996624;stroke-miterlimit:4;stroke-dasharray:none;stroke-opacity:1"
       d="m 130.83379,518.66009 c -4.25721,-1.33143 -7.09384,-3.58161 -9.34706,-7.41461 -2.77531,-4.72114 -2.79491,-11.2237 -0.0479,-15.89631 7.97334,-13.5626 28.73941,-8.83695 29.73294,6.7662 0.31574,4.95852 -0.67486,8.02959 -3.77653,11.70811 -2.4408,2.89473 -7.10595,5.37442 -8.98758,4.77721 -0.78267,-0.24841 -1.38795,-0.10803 -1.38795,0.3219 0,0.99928 -2.48912,0.89365 -6.1859,-0.2625 z"
       id="path1125"
       inkscape:connector-curvature="0"
       transform="scale(0.26458333)" />
    <path
       style="fill:#000080;fill-opacity:1;stroke:#000500;stroke-width:0.26996624;stroke-miterlimit:4;stroke-dasharray:none;stroke-opacity:1"
       d="m 285.60214,514.90098 c -5.01673,-2.64422 -7.96872,-7.11055 -8.43773,-12.76622 -1.17519,-14.17123 14.94049,-22.75601 25.84028,-13.76505 3.21787,2.65435 6.14085,8.40517 6.15088,12.10157 0.023,8.47061 -6.62797,15.49388 -15.30461,16.16136 -3.76651,0.28975 -4.84209,0.064 -8.24882,-1.73166 z"
       id="path1127"
       inkscape:connector-curvature="0"
       transform="scale(0.26458333)" />
    <path
       style="fill:#008000;fill-opacity:1;stroke:#000500;stroke-width:0.26996624;stroke-miterlimit:4;stroke-dasharray:none;stroke-opacity:1"
       d="m 47.496451,505.0894 c -6.829142,-1.83552 -11.268277,-7.08053 -11.761294,-13.89642 -0.368452,-5.0938 0.70802,-8.65879 3.613942,-11.96846 6.248492,-7.11664 16.833215,-7.51974 23.459538,-0.89341 2.510375,2.51037 2.814083,3.15537 2.391561,5.0791 -0.400417,1.82309 -0.289655,2.12899 0.641483,1.77168 0.848212,-0.32549 1.239501,0.17598 1.588372,2.03562 1.482526,7.90254 -4.293067,16.24289 -12.553224,18.12771 -3.804243,0.86806 -3.109295,0.89215 -7.380378,-0.25582 z"
       id="path1129"
       inkscape:connector-curvature="0"
       transform="scale(0.26458333)" />
    <path
       style="fill:#008000;fill-opacity:1;stroke:#000500;stroke-width:0.26996624;stroke-miterlimit:4;stroke-dasharray:none;stroke-opacity:1"
       d="m 324.69681,692.27996 c -11.53794,-4.30102 -14.60501,-18.64385 -5.77825,-27.02134 3.95323,-3.75203 11.38999,-5.30339 16.36164,-3.41318 2.3077,0.87739 8.72355,7.47317 9.71012,9.98243 1.0992,2.79574 0.82525,8.95395 -0.52488,11.79914 -1.46269,3.0824 -4.63673,6.39112 -7.60192,7.92447 -3.03669,1.57034 -8.95737,1.92484 -12.16671,0.72848 z"
       id="path1131"
       inkscape:connector-curvature="0"
       transform="scale(0.26458333)" />
    <path
       style="fill:#008000;fill-opacity:1;stroke:#000500;stroke-width:0.26996624;stroke-miterlimit:4;stroke-dasharray:none;stroke-opacity:1"
       d="m 268.61889,608.73153 c -3.62329,-1.31405 -6.79872,-4.22449 -8.64099,-7.91988 -2.41806,-4.85033 -2.01107,-11.82444 0.93842,-16.08055 2.69164,-3.88404 7.15594,-6.46535 12.05632,-6.97111 3.19604,-0.32986 4.5817,-0.0778 7.88466,1.43436 2.9689,1.35921 3.89645,2.12313 3.5798,2.94832 -0.29581,0.77086 -0.005,1.11377 0.94607,1.11377 2.31251,0 4.74709,5.2692 4.77092,10.32581 0.032,6.78479 -3.76961,12.49697 -10.07575,15.13957 -2.77332,1.16217 -8.26892,1.16683 -11.45945,0.01 z"
       id="path1133"
       inkscape:connector-curvature="0"
       transform="scale(0.26458333)" />
    <path
       style="fill:#008000;fill-opacity:1;stroke:#000500;stroke-width:0.26996624;stroke-miterlimit:4;stroke-dasharray:none;stroke-opacity:1"
       d="m 128.72181,517.2549 c -11.26935,-5.2473 -11.90661,-21.06098 -1.10383,-27.39184 2.51585,-1.47438 4.12739,-1.8718 7.55014,-1.86195 9.38301,0.027 15.42299,6.14335 15.42299,15.61799 0,7.19916 -4.70407,13.12847 -11.58665,14.60451 -4.95008,1.06161 -6.16883,0.94679 -10.28265,-0.96871 z"
       id="path1135"
       inkscape:connector-curvature="0"
       transform="scale(0.26458333)" />
    <path
       style="fill:#ffff00;fill-opacity:1;stroke:#000500;stroke-width:0.26996624;stroke-miterlimit:4;stroke-dasharray:none;stroke-opacity:1"
       d="m 216.66254,327.13544 c -5.50971,-2.85969 -8.35667,-7.97143 -8.49269,-15.24872 -0.0674,-3.60591 0.23289,-4.65627 2.08621,-7.29721 3.15707,-4.49872 7.96746,-7.25144 12.67197,-7.25144 4.37556,0 7.61733,1.43431 11.37389,5.03233 2.13134,2.0414 2.56495,2.90013 2.2527,4.46137 -0.27319,1.36593 -0.052,2.06178 0.75348,2.37089 1.68721,0.64744 1.51344,6.95042 -0.28903,10.48355 -1.80432,3.53677 -3.87608,5.52911 -7.49938,7.2119 -3.52862,1.63881 -9.9293,1.75696 -12.85715,0.23733 z"
       id="path1137"
       inkscape:connector-curvature="0"
       transform="scale(0.26458333)" />
  </g>
</svg>
